<svg width="18" height="18" viewBox="0 0 18 18" fill="none" xmlns="http://www.w3.org/2000/svg">
  <rect x="2" y="2" width="14" height="14" rx="4" fill="#2F4638"/>
  <path d="M6.3 5.1H9.6C10.25 5.1 10.78 5.27 11.19 5.61C11.6 5.94 11.8 6.39 11.8 6.96C11.8 7.32 11.71 7.63 11.52 7.9C11.33 8.17 11.08 8.37 10.76 8.5C11.17 8.61 11.49 8.83 11.72 9.16C11.95 9.49 12.07 9.87 12.07 10.31C12.07 10.93 11.84 11.42 11.38 11.8C10.92 12.17 10.32 12.35 9.57 12.35H6.3V5.1ZM7.73 8.04H9.37C9.67 8.04 9.91 7.96 10.09 7.79C10.28 7.62 10.37 7.39 10.37 7.1C10.37 6.82 10.28 6.6 10.09 6.44C9.91 6.28 9.67 6.2 9.37 6.2H7.73V8.04ZM7.73 11.24H9.5C9.84 11.24 10.11 11.15 10.32 10.96C10.52 10.78 10.62 10.52 10.62 10.2C10.62 9.88 10.52 9.63 10.32 9.44C10.11 9.25 9.84 9.16 9.5 9.16H7.73V11.24Z" fill="#FFFFFF"/>
</svg>
