<svg xmlns="http://www.w3.org/2000/svg" viewBox="0 0 32 32" fill="none">
  <rect x="5" y="5" width="22" height="22" rx="3" fill="#4b5563"/>
  <path d="M12.4 20.6c.5.8 1.1 1.2 2 1.2 1.1 0 1.8-.6 1.8-2.1v-7.3h2.3v7.4c0 2.7-1.6 4.1-4 4.1-1.9 0-3.2-.8-4-2.3l1.9-1Z" fill="#ffffff"/>
  <path d="M20.4 21.3c.7.7 1.7 1.1 2.7 1.1 1.1 0 1.7-.5 1.7-1.2 0-.8-.7-1-1.9-1.5l-.8-.3c-1.4-.6-2.4-1.4-2.4-3.1 0-1.9 1.6-3.3 4-3.3 1.4 0 2.6.4 3.5 1.3l-1.2 1.6c-.7-.6-1.4-.8-2.2-.8-1 0-1.5.4-1.5 1.1 0 .7.8 1 2 1.5l.8.3c1.7.7 2.3 1.6 2.3 3.1 0 1.9-1.5 3.5-4.3 3.5-1.6 0-3.1-.5-4.2-1.7l1.5-1.6Z" fill="#ffffff"/>
</svg>
