<svg xmlns="http://www.w3.org/2000/svg" viewBox="0 0 32 32" fill="none">
  <path d="M16 4c-3.3 0-5.5 2.9-5.5 7.2 0 2.4-.7 4-1.9 5.8-1.3 2-2.6 4.2-2.6 6.4 0 2.7 2.5 4.6 5.2 3.4 1.3 1 2.9 1.6 4.8 1.6s3.5-.6 4.8-1.6c2.7 1.2 5.2-.7 5.2-3.4 0-2.2-1.3-4.4-2.6-6.4-1.2-1.8-1.9-3.4-1.9-5.8C21.5 6.9 19.3 4 16 4Z" stroke="#4b5563" stroke-width="2" stroke-linejoin="round"/>
  <circle cx="13.5" cy="10.5" r="1" fill="#4b5563"/>
  <circle cx="18.5" cy="10.5" r="1" fill="#4b5563"/>
  <path d="M13 16h6l-3 2.5L13 16Z" fill="#4b5563"/>
  <path d="M11 25c1.2-1 2.8-1.5 5-1.5s3.8.5 5 1.5" stroke="#4b5563" stroke-width="2" stroke-linecap="round"/>
</svg>
